<?xml version="1.0" encoding="utf-8"?>
<!-- Generator: Adobe Illustrator 24.0.3, SVG Export Plug-In . SVG Version: 6.00 Build 0)  -->
<svg version="1.1" xmlns="http://www.w3.org/2000/svg" xmlns:xlink="http://www.w3.org/1999/xlink" x="0px" y="0px"
	 viewBox="0 0 1200 1200" style="enable-background:new 0 0 1200 1200;" xml:space="preserve">
<style type="text/css">
	.st0{display:none;}
	.st1{display:inline;}
</style>
<g id="Layer_1">
	<path d="M594.69,261.53c-186.64,0-338.47,151.84-338.47,338.47c0,186.63,151.84,338.47,338.47,338.47S933.16,786.63,933.16,600
		C933.16,413.37,781.32,261.53,594.69,261.53z M642.46,895.93l-87.31-151.69h302.31C812.86,825.36,733.92,881.23,642.46,895.93z
		 M739.6,560.65c-12.4-22.02-24.79-44.04-37.19-66.05c-27-47.95-55.64-94.97-83.15-142.58c-4.7-8.14-9.4-16.28-14.11-24.43
		l-4.47-7.75l-11.31-19.59c1.8-0.04,3.57-0.06,5.31-0.06c90.65,0,174.89,40.2,232.25,110.56
		C826.94,410.75,739.6,560.65,739.6,560.65z M699.36,705.57l6.42-11.41c0.68-1.12,1.19-1.97,1.41-2.35c0,0,3.15-5.54,3.15-5.54
		c10.29-20.59,23.57-39.8,35.42-59.53c26.42-43.99,51.74-88.66,77.57-133c6.75-11.59,13.5-23.17,20.25-34.76
		c0.65-1.11,8.56-12.49,7.89-13.54c22.92,37.89,37,80.04,41.47,123.93c0.34,3.38,0.63,6.76,0.86,10.16
		c0.46,6.79,0.69,13.62,0.69,20.47c0,36.26-6.48,71.74-19.27,105.57H699.36z M546.95,304.08l84.53,146.42H334.97
		C380.1,372.3,457.88,318.39,546.95,304.08z M316.13,489.16h173.89l-18.8,33.39c-15.43,27.2-31.2,54.76-48.13,84.09l-4.02,6.96
		L337.8,754.38c-24.61-40.77-39.01-86.46-42.23-133.93c-0.46-6.78-0.69-13.6-0.69-20.44C294.88,561.7,302.03,524.45,316.13,489.16z
		 M450.81,635.96c0.12,0.2,0.19,0.31,0.27,0.45c22.6,40.15,43.29,81.3,66.35,121.11c5.04,8.71,10.19,17.36,15.34,26.01
		c5.63,9.45,11.26,18.9,16.75,28.44l50.53,87.78c-1.83,0.04-3.61,0.06-5.36,0.06c-90.69,0-174.96-40.24-232.33-110.65L450.81,635.96
		z"/>
	<g>
		<polygon points="811.18,280.33 917.07,280.33 917.07,384.58 958.81,384.58 958.81,238.59 811.18,238.59 		"/>
		<polygon points="213.61,384.58 255.34,384.58 255.34,280.33 361.24,280.33 361.24,238.59 213.61,238.59 		"/>
		<polygon points="255.34,813.31 213.61,813.31 213.61,959.29 361.24,959.29 361.24,917.56 255.34,917.56 		"/>
		<polygon points="917.07,917.56 811.18,917.56 811.18,959.29 958.81,959.29 958.81,813.31 917.07,813.31 		"/>
		<polygon points="490.88,196.33 520.39,225.85 595.27,150.96 668.99,224.68 698.5,195.17 595.27,91.94 		"/>
		<polygon points="594.11,1049.03 520.39,975.32 490.88,1004.82 594.11,1108.06 698.5,1003.66 668.99,974.15 		"/>
		<polygon points="1003.57,496.19 974.06,525.7 1048.94,600.58 975.22,674.3 1004.73,703.81 1107.96,600.58 		"/>
		<polygon points="140.44,599.42 214.16,525.7 184.65,496.19 81.42,599.42 185.81,703.81 215.32,674.3 		"/>
	</g>
</g>
<g id="Layer_2" class="st0">
	<path class="st1" d="M571.3,645.4c0.13-4.32-2.7-7.93-7.1-8.18c-6.84-0.38-13.7-0.29-20.55-0.42c-1.51-0.03-3.04-0.13-5.34-0.23
		c-0.11-2.3-0.21-3.83-0.23-5.34c-0.13-6.85-0.04-13.71-0.42-20.55c-0.25-4.4-3.86-7.23-8.18-7.1c-3.79,0.12-7.31,3.57-7.41,7.63
		c-0.22,9.52-0.49,19.04-0.37,28.56c0.07,5.24,0.9,8.42,3.12,10.28c1.86,2.22,5.04,3.06,10.28,3.12c9.52,0.12,19.05-0.14,28.56-0.37
		C567.73,652.72,571.19,649.2,571.3,645.4z"/>
	<path class="st1" d="M644.53,644.18c-2.96-3.15-7.52-3.7-10.8-0.77c-5.11,4.57-9.89,9.48-14.83,14.24
		c-1.09,1.05-2.24,2.06-3.94,3.61c-1.7-1.55-2.85-2.56-3.94-3.61c-4.94-4.76-9.72-9.67-14.83-14.24c-3.28-2.94-7.84-2.38-10.8,0.77
		c-2.6,2.76-2.65,7.7,0.16,10.64c6.57,6.89,13.12,13.81,19.94,20.46c3.75,3.66,6.59,5.32,9.48,5.06c2.88,0.26,5.73-1.4,9.48-5.06
		c6.82-6.65,13.37-13.57,19.94-20.46C647.18,651.87,647.13,646.94,644.53,644.18z"/>
	<path class="st1" d="M658.3,645.4c-0.13-4.32,2.7-7.93,7.1-8.18c6.84-0.38,13.7-0.29,20.55-0.42c1.51-0.03,3.04-0.13,5.34-0.23
		c0.11-2.3,0.21-3.83,0.23-5.34c0.13-6.85,0.04-13.71,0.42-20.55c0.25-4.4,3.86-7.23,8.18-7.1c3.79,0.12,7.31,3.57,7.41,7.63
		c0.22,9.52,0.49,19.04,0.37,28.56c-0.07,5.24-0.9,8.42-3.12,10.28c-1.86,2.22-5.04,3.06-10.28,3.12
		c-9.52,0.12-19.05-0.14-28.56-0.37C661.87,652.72,658.41,649.2,658.3,645.4z"/>
	<path class="st1" d="M658.3,474.75c-0.13,4.32,2.7,7.93,7.1,8.18c6.84,0.38,13.7,0.29,20.55,0.42c1.51,0.03,3.04,0.13,5.34,0.23
		c0.11,2.3,0.21,3.83,0.23,5.34c0.13,6.85,0.04,13.71,0.42,20.55c0.25,4.4,3.86,7.23,8.18,7.1c3.79-0.12,7.31-3.57,7.41-7.63
		c0.22-9.52,0.49-19.04,0.37-28.56c-0.07-5.24-0.9-8.42-3.12-10.28c-1.86-2.22-5.04-3.06-10.28-3.12
		c-9.52-0.12-19.05,0.14-28.56,0.37C661.87,467.44,658.41,470.96,658.3,474.75z"/>
	<path class="st1" d="M585.06,475.98c2.96,3.15,7.52,3.7,10.8,0.77c5.11-4.57,9.89-9.48,14.83-14.24c1.09-1.05,2.24-2.06,3.94-3.61
		c1.7,1.55,2.85,2.56,3.94,3.61c4.94,4.76,9.72,9.67,14.83,14.24c3.28,2.94,7.84,2.38,10.8-0.77c2.6-2.76,2.65-7.7-0.16-10.64
		c-6.57-6.89-13.12-13.81-19.94-20.46c-3.75-3.66-6.59-5.32-9.48-5.06c-2.88-0.26-5.73,1.4-9.48,5.06
		c-6.82,6.65-13.37,13.57-19.94,20.46C582.41,468.28,582.46,473.21,585.06,475.98z"/>
	<path class="st1" d="M571.3,474.75c0.13,4.32-2.7,7.93-7.1,8.18c-6.84,0.38-13.7,0.29-20.55,0.42c-1.51,0.03-3.04,0.13-5.34,0.23
		c-0.11,2.3-0.21,3.83-0.23,5.34c-0.13,6.85-0.04,13.71-0.42,20.55c-0.25,4.4-3.86,7.23-8.18,7.1c-3.79-0.12-7.31-3.57-7.41-7.63
		c-0.22-9.52-0.49-19.04-0.37-28.56c0.07-5.24,0.9-8.42,3.12-10.28c1.86-2.22,5.04-3.06,10.28-3.12c9.52-0.12,19.05,0.14,28.56,0.37
		C567.73,467.44,571.18,470.96,571.3,474.75z"/>
	<path class="st1" d="M529.24,589.65c3.15-2.96,3.7-7.52,0.77-10.8c-4.57-5.11-9.48-9.89-14.24-14.83
		c-1.05-1.09-2.06-2.24-3.61-3.94c1.55-1.7,2.56-2.85,3.61-3.94c4.76-4.94,9.67-9.72,14.24-14.83c2.94-3.28,2.38-7.84-0.77-10.8
		c-2.76-2.6-7.7-2.65-10.64,0.16c-6.89,6.57-13.81,13.12-20.46,19.94c-3.66,3.75-5.32,6.59-5.06,9.48c-0.26,2.88,1.4,5.73,5.06,9.48
		c6.65,6.82,13.57,13.37,20.46,19.94C521.55,592.3,526.48,592.25,529.24,589.65z"/>
	<path class="st1" d="M700.35,589.75c-3.15-2.96-3.7-7.52-0.77-10.8c4.57-5.11,9.48-9.89,14.24-14.83c1.05-1.09,2.06-2.24,3.61-3.94
		c-1.55-1.7-2.56-2.85-3.61-3.94c-4.76-4.94-9.67-9.72-14.24-14.83c-2.94-3.28-2.38-7.84,0.77-10.8c2.76-2.6,7.7-2.65,10.64,0.16
		c6.89,6.57,13.81,13.12,20.46,19.94c3.66,3.75,5.32,6.59,5.06,9.48c0.26,2.88-1.4,5.73-5.06,9.48
		c-6.65,6.82-13.57,13.37-20.46,19.94C708.05,592.4,703.12,592.35,700.35,589.75z"/>
</g>
<g id="Layer_3" class="st0">
	<g id="I60Hw3.tif" class="st1">
		<g>
			<path d="M613.5,483.1c20.66,0.16,37.79,6.44,52.16,19.26c17.9,15.97,26.71,36.26,26.08,60.27c-0.48,18.5-7.04,34.95-19.46,48.66
				c-16.64,18.37-37.65,26.98-62.4,25.65c-17.45-0.94-32.98-7.38-45.96-19.07c-17.76-15.98-26.68-36.15-26.07-60.09
				c0.47-18.54,6.99-35.02,19.43-48.81C572.61,491.98,591.93,483.44,613.5,483.1z M605.69,491.96
				c-10.41,0.13-27.06,7.11-40.45,21.23c-13.38,14.1-19.68,31.15-18.65,50.5c1.06,19.84,9.46,36.44,24.75,49.12
				c14.66,12.14,31.83,17.12,50.77,15.17c16.02-1.65,29.85-8.31,41.14-19.81c14.05-14.31,20.69-31.7,19.76-51.66
				C681.44,522.72,653.46,491.83,605.69,491.96z"/>
			<path d="M553.27,550.54c7.16-1.46,14.11-2.89,21.07-4.29c6.92-1.39,13.84-2.75,20.94-4.16c-7.27,21.61-14.46,42.99-21.75,64.65
				c-7.98-7.21-13.73-15.56-17.27-25.45C552.68,571.27,551.58,561.05,553.27,550.54z"/>
			<path d="M676.33,569.7c-14.02,2.82-27.91,5.61-42.03,8.46c7.27-21.6,14.46-42.97,21.76-64.65c8,7.25,13.74,15.6,17.28,25.53
				C676.91,549.05,677.99,559.25,676.33,569.7z"/>
			<path d="M634.26,619.49c-2.83,0.59-5.67,1.14-8.49,1.79c-4.27,0.98-8.62,1.32-12.96,1.13c-3-0.13-5.99-0.65-8.96-1.14
				c-2.46-0.41-4.96-0.8-7.3-1.6c-3.41-1.16-6.79-2.52-10.02-4.11c-2.73-1.35-5.25-3.13-7.84-4.76c-0.75-0.47-1.37-1.17-2.14-1.58
				c-0.84-0.46-0.79-0.96-0.52-1.73c0.98-2.78,1.87-5.59,2.84-8.38c0.93-2.67,1.94-5.3,2.85-7.98c1.14-3.36,2.18-6.75,3.3-10.11
				c1.42-4.27,2.87-8.52,4.39-13.03c15.1,17.13,30.05,34.08,44.99,51.02C634.35,619.18,634.31,619.34,634.26,619.49z"/>
			<path d="M639.98,552.01c-14.93-16.93-29.87-33.87-44.95-50.97c1.64-0.49,2.98-0.97,4.36-1.27c2.32-0.51,4.65-1.05,7.01-1.31
				c4.49-0.5,8.98-1.19,13.52-0.3c1.29,0.25,2.66,0.1,3.95,0.36c2.77,0.55,5.54,1.12,8.24,1.93c2.91,0.87,5.86,1.76,8.57,3.12
				c3.73,1.87,7.25,4.16,10.84,6.29c0.52,0.31,0.92,0.89,1.46,1.11c1.12,0.45,0.8,1.15,0.53,1.92c-0.92,2.71-1.81,5.44-2.75,8.14
				c-0.93,2.68-1.95,5.32-2.86,8.01c-0.85,2.51-1.58,5.06-2.41,7.57c-0.81,2.49-1.65,4.97-2.51,7.44c-0.9,2.6-1.82,5.18-2.74,7.77
				C640.23,551.87,640.13,551.9,639.98,552.01z"/>
			<path d="M620.66,534.2c-22.34,4.51-44.44,8.96-66.52,13.41c1.29-12.68,13.16-35.93,38.16-45.6
				C601.69,512.67,611.09,523.34,620.66,534.2z"/>
			<path d="M608.93,586.03c22.3-4.5,44.38-8.95,66.68-13.45c-0.1,0.88-0.05,1.8-0.33,2.61c-1.31,3.73-2.47,7.55-4.16,11.12
				c-1.77,3.74-3.84,7.39-6.21,10.77c-2.77,3.94-6.14,7.43-9.85,10.55c-4.66,3.92-9.79,7.09-15.33,9.59
				c-0.81,0.37-1.66,0.66-2.45,0.98C627.88,607.53,618.5,596.89,608.93,586.03z"/>
		</g>
	</g>
</g>
</svg>
