<svg version="1" xmlns="http://www.w3.org/2000/svg" width="682.667" height="682.667" viewBox="0 0 512.000000 512.000000"><path d="M88.7 1.6C47.2 9.1 14.6 39.3 3.3 80.5l-2.8 10v331l2.8 10c10.5 38.4 38.9 66.7 77.5 77.3l9.7 2.7h331l9.7-2.7c31.3-8.6 55.6-28.4 69.4-56.3 3-6.1 6.6-15.5 8.1-21l2.8-10v-331l-2.8-10c-10.5-38.4-38.9-66.7-77.5-77.3L421.5.5 259 .3C122 .2 95.3.4 88.7 1.6zm187.1 72.7L296 94.5l-6 6-6 6-14.8-14.8L254.5 77l-15 15-15 15-5.8-5.8-5.7-5.8 20.7-20.7C245.2 63.3 254.7 54 255 54c.3 0 9.6 9.1 20.8 20.3zm-114 45.9l-.3 8.3-21.2.3-21.3.2v41h-17v-58h60.1l-.3 8.2zM400 141v29h-17v-41h-42v-17h59v29zm-116-16.6c50.6 11.7 88.9 49.4 101.8 100.3 2.5 10 2.7 12.3 2.7 31.3s-.2 21.3-2.7 31.3c-13.1 51.6-51.9 89.3-103.9 100.9-8.6 1.9-13.3 2.3-27.4 2.3-24.6 0-40.4-3.8-61.9-14.8-37-18.9-63.8-55.2-71.2-96.5-2-11.4-2-35 0-46.4 9.7-54.1 51.8-97.6 105.2-108.7 13.8-2.9 15-3 31.9-2.5 11.3.2 17.6.9 25.5 2.8zM97.2 220.7l5.8 5.8-14.7 14.7L73.5 256l15 15 15 15-5.5 5.5c-3 3-5.9 5.5-6.5 5.5-.5 0-10.2-9.2-21.5-20.5L49.5 256 70 235.5C81.3 224.2 90.7 215 91 215c.2 0 3 2.6 6.2 5.7zm341.4 14.9l20.7 20.6-20.7 20.6-20.6 20.7-6-6-6-6 14.7-14.7 14.8-14.8-15-15-15-15 5.5-5.5c3-3 5.8-5.5 6.2-5.5.4 0 10 9.3 21.4 20.6zM119 361.5V382l21.3.2 21.2.3.3 8.2.3 8.3H102v-28.3c0-15.6.3-28.7.7-29 .3-.4 4.2-.7 8.5-.7h7.8v20.5zm281 8.5v29h-59v-17h42v-41h17v29zm-109.7 40.8l5.7 5.7-21 21-21 21-20.5-20.5-20.5-20.5 6-6 6-6 14.4 14.4 14.5 14.5 14.3-13.9c7.9-7.6 14.5-14.3 14.6-14.7.7-1.5 1.8-.8 7.5 5z"/><path d="M253 137c0 .6 1.3 2.9 26.5 46 9.5 16.2 20.7 35.7 25 43.3l7.7 13.8 17.3-29.7 17.3-29.7-3.9-4.7c-12.9-15.3-37-29.9-58.4-35.5-9-2.3-31.5-4.8-31.5-3.5zM226 140.1c-28.5 7.4-53.8 24.9-69.8 48.2l-5.3 7.7h117.9l-16.6-28.7c-9.2-15.8-17.1-28.8-17.7-28.9-.5-.2-4.4.6-8.5 1.7zM342.5 219.3c-7.7 13.3-19.7 33.6-26.6 45.2-14 23.5-18.9 31.9-18.9 32.9 0 .3 15.6.5 34.7.4l34.6-.3 1.9-5.5c5.5-16.3 7.1-41.9 3.5-58.8-2.8-13.1-9.5-30.6-13.9-36.4-1.2-1.6-2.9.9-15.3 22.5zM140.6 220.2c-4.3 14.4-5 19.8-5 35.8 0 15.6.7 21.1 4.6 34.5 2 7.2 10.6 26.5 11.7 26.5.3-.1 7.1-11.4 15-25.3 8-13.9 21.2-36.9 29.4-51.2 8.2-14.3 15.1-26.6 15.4-27.3.4-.9-6.8-1.2-34.1-1.2h-34.5l-2.5 8.2zM195.3 273.3c-.6 1.2-8.3 14.8-17.2 30.1L162 331.3l4.6 5.3c5.4 6.4 18.5 17 27.4 22.3 15 8.9 33.7 14.7 51.4 15.9 8.9.6 10.5.5 10.1-.6-.3-.8-6.4-11.6-13.7-24.1-19.2-32.9-26.4-45.7-35.8-63.4-4.7-8.6-8.8-15.7-9.1-15.7-.3 0-1 1-1.6 2.3zM239 313.7c0 .1 34 59.3 34.4 60 .3.5 14-2.9 20.1-5 25.2-8.7 48.5-27.2 62.5-49.9l3-4.8-60-.2c-33-.2-60-.2-60-.1z"/></svg>